<svg viewBox="0 0 120 120" xmlns="http://www.w3.org/2000/svg">
  <!-- Fond arrondi bleu -->
  <rect width="120" height="120" rx="28" fill="#185FA5"/>

  <!-- Carnet / cahier -->
  <rect x="28" y="22" width="58" height="72" rx="6" fill="#ffffff" opacity="0.15"/>
  <rect x="32" y="22" width="54" height="72" rx="5" fill="#ffffff"/>

  <!-- Spirale gauche -->
  <rect x="26" y="22" width="10" height="72" rx="5" fill="#0C447C"/>
  <circle cx="31" cy="34" r="4" fill="#185FA5"/>
  <circle cx="31" cy="34" r="2.2" fill="#ffffff"/>
  <circle cx="31" cy="48" r="4" fill="#185FA5"/>
  <circle cx="31" cy="48" r="2.2" fill="#ffffff"/>
  <circle cx="31" cy="62" r="4" fill="#185FA5"/>
  <circle cx="31" cy="62" r="2.2" fill="#ffffff"/>
  <circle cx="31" cy="76" r="4" fill="#185FA5"/>
  <circle cx="31" cy="76" r="2.2" fill="#ffffff"/>

  <!-- Lignes de texte -->
  <rect x="42" y="36" width="30" height="4" rx="2" fill="#B5D4F4"/>
  <rect x="42" y="46" width="24" height="4" rx="2" fill="#B5D4F4"/>
  <rect x="42" y="56" width="28" height="4" rx="2" fill="#B5D4F4"/>

  <!-- Coche verte -->
  <circle cx="72" cy="78" r="16" fill="#3B6D11"/>
  <circle cx="72" cy="78" r="14" fill="#4A8A16"/>
  <polyline points="63,78 69,85 82,68" stroke="#ffffff" stroke-width="4" stroke-linecap="round" stroke-linejoin="round" fill="none"/>
</svg>
